<svg xmlns="http://www.w3.org/2000/svg" xmlns:xlink="http://www.w3.org/1999/xlink" width="47" height="47" viewBox="0 0 47 47">
  <defs>
    <clipPath id="clip-path">
      <rect id="Rectangle_6082" data-name="Rectangle 6082" width="27.309" height="27.446" fill="#fff"/>
    </clipPath>
  </defs>
  <g id="Group_15055" data-name="Group 15055" transform="translate(-1012 -3458)">
    <circle id="Ellipse_131" data-name="Ellipse 131" cx="23.5" cy="23.5" r="23.5" transform="translate(1012 3458)" fill="#2c68c9"/>
    <g id="Group_15027" data-name="Group 15027" transform="translate(1021.849 3467.777)">
      <rect id="Rectangle_6079" data-name="Rectangle 6079" width="3.337" height="8.202" transform="translate(18.914 0.003)" fill="#fff"/>
      <rect id="Rectangle_6080" data-name="Rectangle 6080" width="3.343" height="17.445" transform="translate(11.203 2.568) rotate(-50.026)" fill="#fff"/>
      <rect id="Rectangle_6081" data-name="Rectangle 6081" width="17.445" height="3.343" transform="matrix(0.766, -0.643, 0.643, 0.766, -0.004, 11.221)" fill="#fff"/>
      <g id="Group_14996" data-name="Group 14996" transform="translate(-0.002 0)">
        <g id="Group_14995" data-name="Group 14995" transform="translate(0 0)" clip-path="url(#clip-path)">
          <path id="Path_9588" data-name="Path 9588" d="M63.743,47.3a1.813,1.813,0,1,0-1.813-1.813A1.813,1.813,0,0,0,63.743,47.3" transform="translate(-40.752 -28.738)" fill="#fff"/>
          <path id="Path_9589" data-name="Path 9589" d="M63.185,60.745l-.084-.432-.071-.391-.143-.783L62.6,57.571c0-.005,0-.01-.005-.015a1.706,1.706,0,0,0-.962-1.234,6.224,6.224,0,0,0-5.422,0,1.706,1.706,0,0,0-.962,1.233c0,.005,0,.011-.005.016l-.286,1.568-.143.783-.071.391-.084.432-.055.278.182.249.268.366.262.35.315.42,0-1.136v-.527l0-1.119.833,0,.038-.161.282-1.177-.01,1.337,2.151,0,2.151,0-.009-1.337.282,1.177.036.152.977,0,0,1.131v.527l0,.936.164-.219.262-.35.268-.366.182-.249Z" transform="translate(-35.931 -36.652)" fill="#fff"/>
          <path id="Path_9590" data-name="Path 9590" d="M57.129,71.567h6.909V67.05H57.129Zm.747-3.77h5.415v3.023H57.876Z" transform="translate(-37.593 -44.121)" fill="#fff"/>
          <path id="Path_9591" data-name="Path 9591" d="M19.846,7.539,9.784,16.169v11.01H24.528l.27-1.472,0-.015,0-.014c0-.017.009-.034.012-.051a2.689,2.689,0,0,1,1.4-1.821,4.381,4.381,0,0,1,1-.421,2.777,2.777,0,0,1,2.218-4.458,2.616,2.616,0,0,1,.48.043v-2.8Zm-.714,14.953H16.284V19.644h2.849Zm0-4.394H16.284V15.25h2.849Zm4.278,4.394H20.563V19.644H23.41Zm0-4.394H20.563V15.25H23.41Z" transform="translate(-6.438 -4.961)" fill="#fff"/>
        </g>
      </g>
    </g>
  </g>
</svg>
