<svg xmlns="http://www.w3.org/2000/svg" xmlns:xlink="http://www.w3.org/1999/xlink" width="47" height="47" viewBox="0 0 47 47">
  <defs>
    <clipPath id="clip-path">
      <rect id="Rectangle_6063" data-name="Rectangle 6063" width="30.111" height="30.968" fill="#fff"/>
    </clipPath>
  </defs>
  <g id="Group_15054" data-name="Group 15054" transform="translate(-372 -3028)">
    <circle id="Ellipse_131" data-name="Ellipse 131" cx="23.5" cy="23.5" r="23.5" transform="translate(372 3028)" fill="#2c68c9"/>
    <g id="Group_14981" data-name="Group 14981" transform="translate(380 3037.016)">
      <g id="Group_14980" data-name="Group 14980" transform="translate(0 0)" clip-path="url(#clip-path)">
        <path id="Path_9527" data-name="Path 9527" d="M11.89,12l3.965,6.874,1.429-.826-3.745-6.493A7.831,7.831,0,0,0,11.89,12" transform="translate(-7.121 -6.921)" fill="#fff"/>
        <path id="Path_9528" data-name="Path 9528" d="M13.359,30.976l-2.426,1.4-2.878-4.99L5.177,22.4,7.6,21,3.572,14.007a12.354,12.354,0,0,0-2.307,1.53C-.089,16.694-.212,19.289.226,21.592A26.993,26.993,0,0,0,3.6,29.961a26.97,26.97,0,0,0,5.553,7.111c1.773,1.532,4.08,2.723,5.758,2.128a12.364,12.364,0,0,0,2.478-1.235Z" transform="translate(0 -8.389)" fill="#fff"/>
        <path id="Path_9529" data-name="Path 9529" d="M40.09,60.325A7.852,7.852,0,0,0,41.3,59.118l-3.746-6.493-1.429.826Z" transform="translate(-21.635 -31.517)" fill="#fff"/>
        <path id="Path_9530" data-name="Path 9530" d="M55.606,19.733a.885.885,0,0,1-.874-1.028A15.056,15.056,0,0,0,52.6,8.609a15.033,15.033,0,0,0-7.669-6.9A.885.885,0,0,1,45.556.057a16.751,16.751,0,0,1,8.576,7.668,16.777,16.777,0,0,1,2.346,11.267.885.885,0,0,1-.872.742" transform="translate(-26.566 0)" fill="#fff"/>
        <path id="Path_9531" data-name="Path 9531" d="M47.821,25.634a.885.885,0,0,1-.87-1.052,11.322,11.322,0,0,0-1.619-7.531,11.3,11.3,0,0,0-5.706-5.169.884.884,0,1,1,.579-1.671,13.075,13.075,0,0,1,6.659,5.956,13.091,13.091,0,0,1,1.824,8.749.885.885,0,0,1-.868.718" transform="translate(-23.376 -6.086)" fill="#fff"/>
        <path id="Path_9532" data-name="Path 9532" d="M40.036,31.534a.885.885,0,0,1-.856-1.108,7.667,7.667,0,0,0-1.114-4.933,7.652,7.652,0,0,0-3.71-3.432.884.884,0,1,1,.469-1.705A9.2,9.2,0,0,1,39.6,24.609a9.21,9.21,0,0,1,1.293,6.264.885.885,0,0,1-.855.661" transform="translate(-20.185 -12.172)" fill="#fff"/>
      </g>
    </g>
  </g>
</svg>
