<svg xmlns="http://www.w3.org/2000/svg" xmlns:xlink="http://www.w3.org/1999/xlink" width="47" height="47" viewBox="0 0 47 47">
  <defs>
    <clipPath id="clip-path">
      <rect id="Rectangle_6070" data-name="Rectangle 6070" width="26.538" height="29.309" fill="#fff"/>
    </clipPath>
  </defs>
  <g id="Group_15056" data-name="Group 15056" transform="translate(-1093 -3033)">
    <circle id="Ellipse_131" data-name="Ellipse 131" cx="23.5" cy="23.5" r="23.5" transform="translate(1093 3033)" fill="#2c68c9"/>
    <g id="Group_15011" data-name="Group 15011" transform="translate(1103.029 3039.004)">
      <g id="Group_14987" data-name="Group 14987" clip-path="url(#clip-path)">
        <path id="Path_9546" data-name="Path 9546" d="M25.017,7.575H24.6a9.43,9.43,0,0,0-2.738-4.813A9.822,9.822,0,0,0,15.149,0,9.821,9.821,0,0,0,8.44,2.762,9.429,9.429,0,0,0,5.7,7.575h-.42a2.2,2.2,0,0,0-2.2,2.2v2.849a2.2,2.2,0,0,0,2.2,2.2H6.706V8.491a8.706,8.706,0,0,1,8.444-7.362,8.706,8.706,0,0,1,8.444,7.362V14.82h1.423a2.2,2.2,0,0,0,2.2-2.2V9.773a2.2,2.2,0,0,0-2.2-2.2" transform="translate(-1.881)" fill="#fff"/>
        <path id="Path_9547" data-name="Path 9547" d="M33.1,40.032a.548.548,0,0,1-.006-1.095c3.177-.035,7.231-1.716,8.836-4.151a.547.547,0,1,1,.913.6c-1.4,2.121-5.162,4.593-9.737,4.642Z" transform="translate(-19.832 -21.043)" fill="#fff"/>
        <path id="Path_9548" data-name="Path 9548" d="M32.555,46.653h-1.7a.593.593,0,0,1-.592-.593v-.742a.593.593,0,0,1,.592-.593h1.7a.593.593,0,0,1,.593.593v.742a.593.593,0,0,1-.593.593" transform="translate(-18.435 -27.248)" fill="#fff"/>
        <path id="Path_9549" data-name="Path 9549" d="M20.112,21.959v.753a1.957,1.957,0,0,0,1.953,1.957h1.716a1.946,1.946,0,0,0,1.424-.622,14.522,14.522,0,0,0,1.8-.421V25.7H18.846V22.367a7.617,7.617,0,0,1-3-4.053V12.479a7.333,7.333,0,0,1,7.076-6.087A7.332,7.332,0,0,1,30,12.479V17.62a10.858,10.858,0,0,1-5.317,2.6,1.942,1.942,0,0,0-.9-.22H22.066a1.956,1.956,0,0,0-1.953,1.955" transform="translate(-9.655 -3.894)" fill="#fff"/>
        <path id="Path_9550" data-name="Path 9550" d="M23.943,55.8c-1.2-1.017-5.639-1.913-7.368-2.039H9.288C7.559,53.888,3.8,54.784,2.594,55.8,1.114,57.052,0,60.615,0,62.062H26.538c0-1.447-1.114-5.01-2.594-6.261" transform="translate(0 -32.752)" fill="#fff"/>
      </g>
      <path id="Path_9552" data-name="Path 9552" d="M37.727,48.861a.8.8,0,1,1-1.607,0,.807.807,0,1,1,1.607,0" transform="translate(-23.626 -34.558)" fill="#2c68c9"/>
      <path id="Path_9553" data-name="Path 9553" d="M33.838,14.038a2.7,2.7,0,0,1-1.071,2.01c-.07.068-.137.13-.2.189a1.943,1.943,0,0,0-.727,1.093,8.374,8.374,0,0,0-.03.848c0,.1,0,.168,0,.189a.6.6,0,0,1-.6.576h-.117a.607.607,0,0,1-.607-.606c0-.107,0-.774.007-.846a2.975,2.975,0,0,1,1.129-2.014,1.935,1.935,0,0,0,.81-1.377,1.129,1.129,0,0,0-1.208-1.22,2.148,2.148,0,0,0-1.389.678.964.964,0,0,1-.512.281.62.62,0,0,1-.418-.164.635.635,0,0,1-.2-.449,1.06,1.06,0,0,1,.28-.594,3.372,3.372,0,0,1,2.349-1.018,2.313,2.313,0,0,1,2.512,2.423" transform="translate(-17.89 -6.467)" fill="#2c68c9"/>
    </g>
  </g>
</svg>
