<svg xmlns="http://www.w3.org/2000/svg" xmlns:xlink="http://www.w3.org/1999/xlink" width="47" height="47" viewBox="0 0 47 47">
  <defs>
    <clipPath id="clip-path">
      <rect id="Rectangle_6062" data-name="Rectangle 6062" width="27.909" height="23.258" fill="#fff"/>
    </clipPath>
  </defs>
  <g id="Group_15054" data-name="Group 15054" transform="translate(-849 -3033)">
    <circle id="Ellipse_131" data-name="Ellipse 131" cx="23.5" cy="23.5" r="23.5" transform="translate(849 3033)" fill="#2c68c9"/>
    <g id="Group_15013" data-name="Group 15013" transform="translate(858 3046)">
      <g id="Group_14978" data-name="Group 14978" transform="translate(0 0)" clip-path="url(#clip-path)">
        <path id="Path_9525" data-name="Path 9525" d="M33.245,53.854a2.136,2.136,0,0,1-1.2-.9,5.674,5.674,0,0,1-.5-2.955H23.834a5.673,5.673,0,0,1-.5,2.955,2.136,2.136,0,0,1-1.2.9c-.38.143-.282.8-.082.8H33.327c.2,0,.3-.655-.082-.8" transform="translate(-13.735 -31.394)" fill="#fff"/>
        <path id="Path_9526" data-name="Path 9526" d="M27.3,0H.61A.615.615,0,0,0,0,.62V18.288a.615.615,0,0,0,.61.62H27.3a.615.615,0,0,0,.61-.62V.62A.615.615,0,0,0,27.3,0M25.8,16.8H2.11V2.11H25.8Z" transform="translate(0 0)" fill="#fff"/>
      </g>
    </g>
  </g>
</svg>
