<svg xmlns="http://www.w3.org/2000/svg" xmlns:xlink="http://www.w3.org/1999/xlink" width="47" height="47" viewBox="0 0 47 47">
  <defs>
    <clipPath id="clip-path">
      <rect id="Rectangle_6069" data-name="Rectangle 6069" width="28" height="18" transform="translate(0.283 0.264)" fill="#fff"/>
    </clipPath>
  </defs>
  <g id="Group_15055" data-name="Group 15055" transform="translate(-1012 -3033)">
    <circle id="Ellipse_131" data-name="Ellipse 131" cx="23.5" cy="23.5" r="23.5" transform="translate(1012 3033)" fill="#2c68c9"/>
    <g id="Group_15012" data-name="Group 15012" transform="translate(1021.718 3046.736)">
      <path id="Path_9539" data-name="Path 9539" d="M1.847,1.846H26.07V16.765H1.847ZM0,18.611H27.917V0H0Z" fill="#fff"/>
      <g id="Group_14985" data-name="Group 14985">
        <g id="Group_14984" data-name="Group 14984" clip-path="url(#clip-path)">
          <path id="Path_9540" data-name="Path 9540" d="M44.143,25.774a10.642,10.642,0,0,0-.733,4.185h3.838L45.98,24.893a3.349,3.349,0,0,0-1.837.881" transform="translate(-27.252 -15.627)" fill="#fff"/>
          <path id="Path_9541" data-name="Path 9541" d="M56.825,25.774a3.354,3.354,0,0,0-1.838-.881L53.72,29.959h3.838a10.651,10.651,0,0,0-.732-4.185" transform="translate(-33.724 -15.627)" fill="#fff"/>
          <path id="Path_9542" data-name="Path 9542" d="M52.864,26.3l-.144.15-.145-.15a14.642,14.642,0,0,0-.446,3.4,2.371,2.371,0,0,0,.59,1.141,2.371,2.371,0,0,0,.59-1.141,14.622,14.622,0,0,0-.446-3.4" transform="translate(-32.723 -16.51)" fill="#fff"/>
          <path id="Path_9543" data-name="Path 9543" d="M52.845,24.56c-.287,0-.519.124-.519.335a.519.519,0,1,0,1.038,0c0-.211-.232-.335-.519-.335" transform="translate(-32.849 -15.418)" fill="#fff"/>
          <path id="Path_9544" data-name="Path 9544" d="M52.4,14.652a1.923,1.923,0,1,1-1.924-1.924A1.924,1.924,0,0,1,52.4,14.652" transform="translate(-30.48 -7.99)" fill="#fff"/>
          <path id="Path_9545" data-name="Path 9545" d="M21.153,14.042H19.508V12.195h1.646Zm-2.743,0H16.765V12.195h1.646Zm-2.743,0H14.023V12.195h1.646Zm-2.743,0H11.28V12.195h1.646Z" transform="translate(-7.081 -7.656)" fill="#fff"/>
          <rect id="Rectangle_6065" data-name="Rectangle 6065" width="9.874" height="0.917" transform="translate(4.198 7.642)" fill="#fff"/>
          <rect id="Rectangle_6066" data-name="Rectangle 6066" width="9.874" height="0.917" transform="translate(4.198 9.632)" fill="#fff"/>
          <rect id="Rectangle_6067" data-name="Rectangle 6067" width="9.874" height="0.917" transform="translate(4.198 11.623)" fill="#fff"/>
          <rect id="Rectangle_6068" data-name="Rectangle 6068" width="9.874" height="0.917" transform="translate(4.198 13.613)" fill="#fff"/>
        </g>
      </g>
    </g>
  </g>
</svg>
