<svg xmlns="http://www.w3.org/2000/svg" xmlns:xlink="http://www.w3.org/1999/xlink" width="47" height="47" viewBox="0 0 47 47">
  <defs>
    <clipPath id="clip-path">
      <rect id="Rectangle_6064" data-name="Rectangle 6064" width="32.663" height="25.921" fill="#fff"/>
    </clipPath>
  </defs>
  <g id="Group_15056" data-name="Group 15056" transform="translate(-1093 -3458)">
    <circle id="Ellipse_131" data-name="Ellipse 131" cx="23.5" cy="23.5" r="23.5" transform="translate(1093 3458)" fill="#2c68c9"/>
    <g id="Group_15011" data-name="Group 15011" transform="translate(1103.029 3464.004)">
      <path id="Path_9552" data-name="Path 9552" d="M37.727,48.861a.8.8,0,1,1-1.607,0,.807.807,0,1,1,1.607,0" transform="translate(-23.626 -34.558)" fill="#2c68c9"/>
      <path id="Path_9553" data-name="Path 9553" d="M33.838,14.038a2.7,2.7,0,0,1-1.071,2.01c-.07.068-.137.13-.2.189a1.943,1.943,0,0,0-.727,1.093,8.374,8.374,0,0,0-.03.848c0,.1,0,.168,0,.189a.6.6,0,0,1-.6.576h-.117a.607.607,0,0,1-.607-.606c0-.107,0-.774.007-.846a2.975,2.975,0,0,1,1.129-2.014,1.935,1.935,0,0,0,.81-1.377,1.129,1.129,0,0,0-1.208-1.22,2.148,2.148,0,0,0-1.389.678.964.964,0,0,1-.512.281.62.62,0,0,1-.418-.164.635.635,0,0,1-.2-.449,1.06,1.06,0,0,1,.28-.594,3.372,3.372,0,0,1,2.349-1.018,2.313,2.313,0,0,1,2.512,2.423" transform="translate(-17.89 -6.467)" fill="#2c68c9"/>
      <g id="Group_15024" data-name="Group 15024" transform="translate(-2.029 3.996)">
        <g id="Group_14982" data-name="Group 14982" transform="translate(0 0)" clip-path="url(#clip-path)">
          <path id="Path_9533" data-name="Path 9533" d="M17.091,3.979A3.978,3.978,0,1,1,13.113,0a3.978,3.978,0,0,1,3.978,3.978" transform="translate(-5.157 -0.001)" fill="#fff"/>
          <path id="Path_9534" data-name="Path 9534" d="M13.384,26.022a7.92,7.92,0,0,0-4.492,2.284A8.857,8.857,0,0,0,7.75,31.615H0c0-3.173.711-7.556,1.519-8.656.742-1.013,3.508-2.1,6.437-2.1a12.742,12.742,0,0,1,3.177.411c-.013.149-.02.3-.02.451a5.212,5.212,0,0,0,2.271,4.3" transform="translate(0 -11.773)" fill="#fff"/>
          <path id="Path_9535" data-name="Path 9535" d="M47.6,3.979A3.978,3.978,0,1,0,51.575,0,3.978,3.978,0,0,0,47.6,3.979" transform="translate(-26.868 -0.001)" fill="#fff"/>
          <path id="Path_9536" data-name="Path 9536" d="M44.267,26.022a7.92,7.92,0,0,1,4.492,2.284A8.857,8.857,0,0,1,49.9,31.615h7.75c0-3.173-.711-7.556-1.519-8.656-.742-1.013-3.508-2.1-6.437-2.1a12.742,12.742,0,0,0-3.177.411c.013.149.02.3.02.451a5.212,5.212,0,0,1-2.271,4.3" transform="translate(-24.989 -11.773)" fill="#fff"/>
          <path id="Path_9537" data-name="Path 9537" d="M36.322,17.68A3.978,3.978,0,1,1,32.344,13.7a3.978,3.978,0,0,1,3.978,3.978" transform="translate(-16.013 -7.735)" fill="#fff"/>
          <path id="Path_9538" data-name="Path 9538" d="M35.143,45.577c0-3.174-.712-7.555-1.519-8.656-.743-1.013-3.506-2.1-6.438-2.1s-5.7,1.089-6.438,2.1c-.807,1.1-1.519,5.482-1.519,8.656Z" transform="translate(-10.856 -19.655)" fill="#fff"/>
        </g>
      </g>
    </g>
  </g>
</svg>
