<svg id="newspaper-line" xmlns="http://www.w3.org/2000/svg" width="50" height="50" viewBox="0 0 50 50">
  <path id="Path_2437" data-name="Path 2437" d="M0,0H50V50H0Z" fill="none"/>
  <path id="Path_2438" data-name="Path 2438" d="M34.2,43.4V6.6H6.6V41.1a2.3,2.3,0,0,0,2.3,2.3ZM41.1,48H8.9A6.9,6.9,0,0,1,2,41.1V4.3A2.3,2.3,0,0,1,4.3,2H36.5a2.3,2.3,0,0,1,2.3,2.3V20.4H48V41.1A6.9,6.9,0,0,1,41.1,48ZM38.8,25V41.1a2.3,2.3,0,0,0,4.6,0V25ZM11.2,11.2H25V25H11.2Zm4.6,4.6v4.6h4.6V15.8ZM11.2,27.3H29.6v4.6H11.2Zm0,6.9H29.6v4.6H11.2Z" fill="#fff"/>
</svg>
