<svg id="customer-service-line" xmlns="http://www.w3.org/2000/svg" width="50" height="50" viewBox="0 0 50 50">
  <path id="Path_1013" data-name="Path 1013" d="M0,0H50V50H0Z" fill="none"/>
  <path id="Path_1014" data-name="Path 1014" d="M43.667,33.254a12.5,12.5,0,0,1-9.819,12.208l-1.329-3.987a8.34,8.34,0,0,0,5.867-4.058H33.25a4.167,4.167,0,0,1-4.167-4.167V24.917A4.167,4.167,0,0,1,33.25,20.75h6.121a16.669,16.669,0,0,0-33.075,0h6.121a4.167,4.167,0,0,1,4.167,4.167V33.25a4.167,4.167,0,0,1-4.167,4.167H6.167A4.167,4.167,0,0,1,2,33.25V22.833a20.833,20.833,0,1,1,41.667,0Zm-4.167,0V24.917H33.25V33.25ZM6.167,24.917V33.25h6.25V24.917Z" transform="translate(2.167 2.167)" fill="#fff"/>
</svg>
