<svg id="user-2-line" xmlns="http://www.w3.org/2000/svg" width="50" height="50" viewBox="0 0 50 50">
  <path id="Path_5074" data-name="Path 5074" d="M0,0H50V50H0Z" fill="none"/>
  <path id="Path_5075" data-name="Path 5075" d="M4,44.75a16.667,16.667,0,1,1,33.333,0ZM22.75,32.423v8.16h9.706A12.519,12.519,0,0,0,22.75,32.423Zm-4.167,8.16v-8.16a12.519,12.519,0,0,0-9.706,8.16ZM20.667,26a12.5,12.5,0,1,1,12.5-12.5A12.5,12.5,0,0,1,20.667,26Zm0-4.167A8.333,8.333,0,1,0,12.333,13.5,8.331,8.331,0,0,0,20.667,21.833Z" transform="translate(4.333 1.083)" fill="#fff"/>
</svg>
